<?xml version="1.0" standalone="no"?><!DOCTYPE svg PUBLIC "-//W3C//DTD SVG 1.1//EN" "http://www.w3.org/Graphics/SVG/1.1/DTD/svg11.dtd"><svg t="1525331675799" class="icon" style="" viewBox="0 0 1024 1024" version="1.1" xmlns="http://www.w3.org/2000/svg" p-id="2514" xmlns:xlink="http://www.w3.org/1999/xlink" width="200" height="200"><defs><style type="text/css"></style></defs><path d="M957.716364 388.980175l-51.098795-153.60747c-2.87856-8.653077-11.384281-14.099113-20.476357-13.143345l-369.548614 40.298822a19.368116 19.368116 0 0 0-11.06808 5.052063L365.686656 397.228023a19.360953 19.360953 0 0 0-5.209651 20.315698l56.260351 169.131026a19.364023 19.364023 0 0 0 18.288528 13.254885l192.445011 0.87595h0.088004c3.498684 0 6.931876-0.947582 9.93528-2.741437L949.274088 411.718039a19.365046 19.365046 0 0 0 8.442276-22.737864z m-556.547588 28.172643l107.181091-99.371218 82.131579 244.119927-141.377938-0.642637-47.934732-144.106072z m228.701772 140.340306l-87.088474-258.854513 271.146466-29.567409 50.182936 148.419307-234.240928 140.002615z m268.257673-160.333662l-44.763506-132.388193 21.432125-2.337231 41.254589 124.012431-17.923208 10.712993z" p-id="2515"></path><path d="M842.289472 510.751566a16.454764 16.454764 0 0 0-16.673751 0.407276l-129.952725 80.770582c-20.694321 2.241041-39.597857 10.497075-54.941309 22.985504H404.956032l-64.983014-194.948018c-0.823761-2.470261-2.217505-4.565992-3.930519-6.301519v-35.502585c0-9.083889-7.365758-16.449647-16.449647-16.449648H135.451972a16.444531 16.444531 0 0 0-15.565511 11.134595l-53.712319 157.292396a16.390295 16.390295 0 0 0-0.883113 5.314029V680.133302c0 9.083889 7.365758 16.449647 16.449647 16.449647h53.966099c0.001023 58.06137 47.236837 105.296161 105.296161 105.296161 58.06137 0 105.297185-47.234791 105.298208-105.296161h255.471462c0.001023 58.06137 47.236837 105.296161 105.296161 105.296161 58.06137 0 105.297185-47.234791 105.298208-105.296161h21.932522c9.083889 0 16.449647-7.365758 16.449647-16.449647V525.129019a16.454764 16.454764 0 0 0-8.459672-14.377453z m-24.440646 104.163362h-44.435025a105.349373 105.349373 0 0 0-26.863834-15.879666l71.298859-44.314275v60.193941z m-214.150358 48.76975H342.396207a108.142999 108.142999 0 0 0-6.438642-15.871479H610.129948a107.680465 107.680465 0 0 0-6.43148 15.871479z m-233.422283-48.76975h-34.232663v-102.69901l34.232663 102.69901zM131.612527 440.306144v6.529717h67.34992c17.254989 0 31.292704 14.036691 31.292704 31.292704v25.530466H109.97881l21.633717-63.352887z m-33.423227 223.378534v-125.498272l0.555655-1.628081h147.959843c9.083889 0 16.449647-7.365758 16.449647-16.449647v-41.980113c0-35.394115-28.79686-64.190975-64.190974-64.190975H140.616598l6.599302-19.325137h155.929352v214.399021c-18.069541-13.241582-40.307008-20.952194-64.113204-20.952194-47.795563 0-89.277326 31.077809-103.368252 75.625398h-37.474496z m142.812613 105.295138c-39.918151 0-72.396867-32.478715-72.396867-72.399937 0-39.918151 32.478715-72.396867 72.396867-72.396867 39.921221 0 72.399937 32.478715 72.399937 72.396867 0 39.922245-32.478715 72.399937-72.399937 72.399937z m466.064808 0c-39.918151 0-72.396867-32.478715-72.396867-72.399937 0-39.513946 31.836079-71.687716 71.198575-72.336492l0.033769 0.054235 0.098238-0.061398c0.35918-0.005117 0.706081-0.054235 1.066285-0.054235 39.921221 0 72.399937 32.478715 72.399937 72.396867 0 39.923268-32.478715 72.40096-72.399937 72.40096z m110.782105-105.295138h-7.410783a107.825774 107.825774 0 0 0-6.433526-15.871479h13.844309v15.871479z" p-id="2516"></path></svg>